# xmcd
#
# Track frame offsets: 
#        150
#        12485
#        24447
#        34102
#        48017
#        63015
#        73378
#        92527
#        103887
#        114703
#        125068
#        131860
#        143706
#        153014
#        164981
#        175883
#        187769
#
# Disc length: 2739 seconds
#
# Revision: 0
# Processed by: cddbd v1.5.2PL0 Copyright (c) Steve Scherf et al.
# Submitted via: ExactAudioCopy v1.0b1
#
DISCID=ec0ab111
DTITLE=Various Artist - 50 Country Hits CD1
DYEAR=1900
DGENRE=Country
TTITLE0=Johnny Cash - Peace In The Valley
TTITLE1=Lynn Anderson - Rose Garden
TTITLE2=Billy Swan - I Can Help
TTITLE3=Charley Pride - What's Another Year
TTITLE4=Brenda Lee And Nina Martinique - Silver Threads And Golden Nee
TTITLE4=dles
TTITLE5=Dave Dudley - Six Days On The Road
TTITLE6=Marty Robbins - El Paso City
TTITLE7=James Darren - Help Me Make It Through The Night
TTITLE8=Roger Miller - King Of The Road
TTITLE9=Ferlin Husky - Wings Of A Dove
TTITLE10=Waylon Jennings - It's So Easy
TTITLE11=Wanda Jackson - Right Or Wrong
TTITLE12=Ronnie Hawkins - Hey Good Lookin'
TTITLE13=Stonewall Jackson - Waterloo
TTITLE14=Patsy Cline - I Don't Wanna
TTITLE15=Skeeter Davis - The End Of The World
TTITLE16=Bobby Goldsboro - Honey
EXTD=
EXTT0=
EXTT1=
EXTT2=
EXTT3=
EXTT4=
EXTT5=
EXTT6=
EXTT7=
EXTT8=
EXTT9=
EXTT10=
EXTT11=
EXTT12=
EXTT13=
EXTT14=
EXTT15=
EXTT16=
PLAYORDER=
